<?xml version="1.0" encoding="iso-8859-1"?>
<!-- Generator: Adobe Illustrator 16.0.0, SVG Export Plug-In . SVG Version: 6.00 Build 0)  -->
<!DOCTYPE svg PUBLIC "-//W3C//DTD SVG 1.1//EN" "http://www.w3.org/Graphics/SVG/1.1/DTD/svg11.dtd">
<svg xmlns="http://www.w3.org/2000/svg" xmlns:xlink="http://www.w3.org/1999/xlink" version="1.1" id="Capa_1" x="0px" y="0px" width="512px" height="512px" viewBox="0 0 512 512" style="enable-background:new 0 0 512 512;" xml:space="preserve">
<g>
	<path d="M256,0C114.609,0,0,114.609,0,256c0,141.391,114.609,256,256,256c141.391,0,256-114.609,256-256   C512,114.609,397.391,0,256,0z M256,472c-119.297,0-216-96.703-216-216S136.703,40,256,40s216,96.703,216,216S375.297,472,256,472z   " fill="#6a67ce"/>
	<path d="M336.005,128.769c-26.266,14.312-53.358,2.234-72.891,0c-86.234-9.891-113.641,77.734-50.812,112.859   c-16.172,7.312-15.109,44.453,2.203,49.733c-40.812,4.078-48.391,54.188-26.5,74.625c26.625,24.845,108.531,23.188,132.547,0   c16.767-16.219,19.109-49.625,4.422-65.03c-13.391-14.078-80.562-16.203-79.531-38.267c0.719-15.438,25.016-13,39.766-19.141   c27.734-11.547,44.047-46.109,33.141-72.703c6.188-1,11.47-2.797,17.656-3.812C336.005,154.284,336.005,141.534,336.005,128.769z    M229.974,209.128c-32.328-61.344,74.344-56.953,41.984,0C261.35,215.972,240.458,216.659,229.974,209.128z M289.63,329.645   c2.859,27.5-61.094,28.719-68.5,9.562c-6.219-16.142,1.531-20.72,19.891-24.875C261.816,309.611,287.708,311.236,289.63,329.645z" fill="#6a67ce"/>
</g>
<g>
</g>
<g>
</g>
<g>
</g>
<g>
</g>
<g>
</g>
<g>
</g>
<g>
</g>
<g>
</g>
<g>
</g>
<g>
</g>
<g>
</g>
<g>
</g>
<g>
</g>
<g>
</g>
<g>
</g>
</svg>
